<?xml version="1.0" encoding="UTF-8" standalone="no"?>
<svg
   width="256"
   height="256"
   viewBox="0 0 256 256"
   fill="none"
   version="1.1"
   id="svg437"
   sodipodi:docname="AlpineJS-Dark.svg"
   xml:space="preserve"
   inkscape:version="1.2 (dc2aedaf03, 2022-05-15)"
   xmlns:inkscape="http://www.inkscape.org/namespaces/inkscape"
   xmlns:sodipodi="http://sodipodi.sourceforge.net/DTD/sodipodi-0.dtd"
   xmlns="http://www.w3.org/2000/svg"
   xmlns:svg="http://www.w3.org/2000/svg"><defs
     id="defs441"><linearGradient
       id="paint0_linear"
       x1="16.1808"
       y1="28.3899"
       x2="16.1808"
       y2="5.61023"
       gradientUnits="userSpaceOnUse"><stop
         stop-color="#7400E1"
         id="stop468" /><stop
         offset="1"
         stop-color="#4000BF"
         id="stop470" /></linearGradient></defs><sodipodi:namedview
     id="namedview439"
     pagecolor="#505050"
     bordercolor="#eeeeee"
     borderopacity="1"
     inkscape:showpageshadow="0"
     inkscape:pageopacity="0"
     inkscape:pagecheckerboard="0"
     inkscape:deskcolor="#505050"
     showgrid="false"
     inkscape:zoom="1.5742188"
     inkscape:cx="293.47891"
     inkscape:cy="113.7072"
     inkscape:window-width="2560"
     inkscape:window-height="1009"
     inkscape:window-x="1358"
     inkscape:window-y="-8"
     inkscape:window-maximized="1"
     inkscape:current-layer="svg437" /><rect
     width="256"
     height="256"
     rx="60"
     fill="#242938"
     id="rect431"
     style="fill:#4d4d4d" /><g
     style="fill:none"
     id="g486"
     transform="translate(-199.23713,50.01737)"><g
       id="g587"
       transform="matrix(5.8833747,0,0,5.8833747,233.13151,-22.669975)"><path
         d="M 15.9999,32.1865 C 24.3872,32.1865 31.1864,25.3873 31.1864,17 31.1864,8.6128 24.3872,1.8136 15.9999,1.8136 7.61268,1.8136 0.813477,8.6128 0.813477,17 c 0,8.3873 6.799203,15.1865 15.186423,15.1865 z"
         fill="#ffffff"
         id="path460" /><path
         d="M 16,1 C 7.16344,1 0,8.16344 0,17 0,25.8366 7.16344,33 16,33 24.8366,33 32,25.8366 32,17 32,8.16344 24.8366,1 16,1 Z m 0,1.62712 c 7.9379,0 14.3729,6.43496 14.3729,14.37288 0,7.9379 -6.435,14.3729 -14.3729,14.3729 C 8.06208,31.3729 1.62712,24.9379 1.62712,17 1.62712,9.06208 8.06208,2.62712 16,2.62712 Z"
         fill="#4000bf"
         id="path462" /><path
         fill-rule="evenodd"
         clip-rule="evenodd"
         d="m 16.1808,5.61023 c 6.2905,0 11.3899,5.09937 11.3899,11.38987 0,6.2904 -5.0994,11.3898 -11.3899,11.3898 -6.29038,0 -11.38978,-5.0994 -11.38978,-11.3898 0,-1.5374 0.30457,-3.0036 0.85668,-4.3416 0.80615,1.0978 2.1062,1.8105 3.57269,1.8105 2.44631,0 4.42941,-1.9831 4.42941,-4.4294 0,-1.46649 -0.7127,-2.76653 -1.8106,-3.57267 1.3381,-0.55212 2.8043,-0.8567 4.3416,-0.8567 z"
         fill="url(#paint0_linear)"
         id="path464"
         style="fill:url(#paint0_linear)" /></g></g></svg>
