<?xml version="1.0" encoding="UTF-8" standalone="no"?>
<svg
   aria-label="Railway Logo"
   _css="[object Object],[object Object]"
   class="Logo___StyledRailwaySVG-sc-1t76u9a-0 kCBXTb"
   viewBox="0 0 1024 1024"
   fill="currentColor"
   version="1.1"
   id="svg23"
   sodipodi:docname="Railway-0.svg"
   xml:space="preserve"
   inkscape:version="1.2 (dc2aedaf03, 2022-05-15)"
   xmlns:inkscape="http://www.inkscape.org/namespaces/inkscape"
   xmlns:sodipodi="http://sodipodi.sourceforge.net/DTD/sodipodi-0.dtd"
   xmlns="http://www.w3.org/2000/svg"
   xmlns:svg="http://www.w3.org/2000/svg"><defs
     id="defs27" /><sodipodi:namedview
     id="namedview25"
     pagecolor="#505050"
     bordercolor="#eeeeee"
     borderopacity="1"
     inkscape:showpageshadow="0"
     inkscape:pageopacity="0"
     inkscape:pagecheckerboard="0"
     inkscape:deskcolor="#505050"
     showgrid="false"
     inkscape:zoom="0.55657038"
     inkscape:cx="751.02811"
     inkscape:cy="515.65806"
     inkscape:window-width="2560"
     inkscape:window-height="1009"
     inkscape:window-x="1358"
     inkscape:window-y="-8"
     inkscape:window-maximized="1"
     inkscape:current-layer="svg23" /><g
     id="g215"
     transform="matrix(4.0093537,0,0,4.0093537,-587.846,-531.73766)"><g
       style="fill:#b3b3b3"
       id="g203"
       transform="translate(148.96278,110.84864)"><rect
         width="1517.1765"
         height="1517.1765"
         rx="355.58823"
         fill="#242938"
         id="rect191"
         x="-1767.5294"
         y="-615.52936"
         style="display:inline;fill:#b3b3b3;stroke-width:5.92647"
         transform="matrix(0.16873449,0,0,0.16873449,295.70223,125.45905)"
         sodipodi:insensitive="true" /><g
         id="g189"
         transform="matrix(0.16873449,0,0,0.16873449,41.685007,62.679703)"
         style="display:inline"><path
           d="M 4.756,438.175 A 520.713,520.713 0 0 0 0,489.735 h 777.799 c -2.716,-5.306 -6.365,-10.09 -10.045,-14.772 -132.97,-171.791 -204.498,-156.896 -306.819,-161.26 -34.114,-1.403 -57.249,-1.967 -193.037,-1.967 -72.677,0 -151.688,0.185 -228.628,0.39 -9.96,26.884 -19.566,52.942 -24.243,74.14 h 398.571 v 51.909 z M 783.93,541.696 H 0.399 c 0.82,13.851 2.112,27.517 3.978,40.999 h 723.39 c 32.248,0 50.299,-18.297 56.162,-40.999 z M 45.017,724.306 c 0,0 119.924,294.464 466.443,299.694 207.112,0 385.071,-123.006 465.907,-299.694 z"
           fill="currentColor"
           id="path19" /><path
           d="M 511.454,0 C 319.953,0 153.311,105.16 65.31,260.612 c 68.771,-0.144 202.704,-0.226 202.704,-0.226 h 0.031 v -0.051 c 158.309,0 164.193,0.707 195.118,1.998 l 19.149,0.706 c 66.7,2.224 148.683,9.384 213.19,58.19 35.015,26.471 85.571,84.896 115.708,126.52 27.861,38.499 35.876,82.756 16.933,125.158 -17.436,38.97 -54.952,62.215 -100.383,62.215 H 16.69 c 0,0 4.233,17.944 10.58,37.751 H 997.902 A 510.385,510.385 0 0 0 1024,512.218 C 1024.01,229.355 794.532,0 511.454,0 Z"
           fill="currentColor"
           id="path21" /></g></g></g></svg>
